<?xml version="1.0" encoding="UTF-8"?>
<!DOCTYPE svg PUBLIC "-//W3C//DTD SVG 1.1//EN" "http://www.w3.org/Graphics/SVG/1.1/DTD/svg11.dtd">
<svg xmlns="http://www.w3.org/2000/svg" version="1.1" width="1115px" height="273px" style="shape-rendering:geometricPrecision; text-rendering:geometricPrecision; image-rendering:optimizeQuality; fill-rule:evenodd; clip-rule:evenodd" xmlns:xlink="http://www.w3.org/1999/xlink">
<g><path style="opacity:0.989" fill="#ed2024" d="M 191.5,17.5 C 148.185,17.0803 112.351,33.0803 84,65.5C 63.7705,91.3157 56.7705,120.316 63,152.5C 71.9133,185.413 93.08,205.247 126.5,212C 163.198,215.409 189.364,200.576 205,167.5C 218.224,118.121 200.057,86.9545 150.5,74C 149.435,66.7107 150.268,59.544 153,52.5C 161.527,35.1321 175.027,23.7988 193.5,18.5C 225.937,33.4388 249.104,57.4388 263,90.5C 283.293,153.864 267.46,206.031 215.5,247C 173.262,274.195 128.595,278.862 81.5,261C 34.4182,239.635 7.0849,203.468 -0.5,152.5C -0.5,143.167 -0.5,133.833 -0.5,124.5C 8.69098,69.1284 39.691,31.6284 92.5,12C 120.068,3.77735 147.735,3.44402 175.5,11C 181.214,12.5088 186.548,14.6755 191.5,17.5 Z"/></g>
<g><path style="opacity:1" fill="#fffefd" d="M 191.5,17.5 C 192.492,17.3284 193.158,17.6618 193.5,18.5C 175.027,23.7988 161.527,35.1321 153,52.5C 150.268,59.544 149.435,66.7107 150.5,74C 200.057,86.9545 218.224,118.121 205,167.5C 189.364,200.576 163.198,215.409 126.5,212C 93.08,205.247 71.9133,185.413 63,152.5C 56.7705,120.316 63.7705,91.3157 84,65.5C 112.351,33.0803 148.185,17.0803 191.5,17.5 Z"/></g>
<g><path style="opacity:0.98" fill="#ec1f23" d="M 770.5,56.5 C 780.404,55.817 790.071,56.9837 799.5,60C 799.72,67.4905 798.886,74.9905 797,82.5C 789.538,78.8799 782.038,78.7132 774.5,82C 771.112,86.2153 769.779,91.0487 770.5,96.5C 777.5,96.5 784.5,96.5 791.5,96.5C 791.5,103.5 791.5,110.5 791.5,117.5C 784.5,117.5 777.5,117.5 770.5,117.5C 770.5,142.833 770.5,168.167 770.5,193.5C 761.833,193.5 753.167,193.5 744.5,193.5C 744.5,168.167 744.5,142.833 744.5,117.5C 740.167,117.5 735.833,117.5 731.5,117.5C 731.5,110.5 731.5,103.5 731.5,96.5C 735.833,96.5 740.167,96.5 744.5,96.5C 741.729,75.3083 750.396,61.9749 770.5,56.5 Z"/></g>
<g><path style="opacity:0.974" fill="#ec1f23" d="M 595.5,59.5 C 604.167,59.5 612.833,59.5 621.5,59.5C 621.5,104.167 621.5,148.833 621.5,193.5C 613.493,193.666 605.493,193.5 597.5,193C 596.751,191.266 596.251,189.433 596,187.5C 581.312,198.956 566.146,199.456 550.5,189C 535.08,174.537 528.913,156.704 532,135.5C 536.607,109.392 552.107,95.3917 578.5,93.5C 584.144,93.9124 589.644,94.9124 595,96.5C 595.5,84.1712 595.667,71.8378 595.5,59.5 Z M 578.5,115.5 C 584.029,115.473 589.363,116.473 594.5,118.5C 594.833,126.333 595.167,134.167 595.5,142C 595.638,150.597 595.138,159.097 594,167.5C 577.756,178.307 566.089,174.641 559,156.5C 555.826,144.71 557.493,133.71 564,123.5C 568.134,119.354 572.968,116.687 578.5,115.5 Z"/></g>
<g><path style="opacity:0.961" fill="#ec1f23" d="M 466.5,93.5 C 500.389,93.8881 518.056,111.055 519.5,145C 518.766,176.563 502.766,193.73 471.5,196.5C 449.792,195.906 434.959,185.573 427,165.5C 419.564,142.251 424.064,121.751 440.5,104C 448.278,98.0249 456.945,94.5249 466.5,93.5 Z M 468.5,115.5 C 480.784,115.61 488.617,121.61 492,133.5C 495.098,145.264 493.431,156.264 487,166.5C 477.277,175.406 467.277,175.739 457,167.5C 447.827,153.585 447.16,139.251 455,124.5C 458.528,119.834 463.028,116.834 468.5,115.5 Z"/></g>
<g><path style="opacity:0.964" fill="#ec1f23" d="M 675.5,93.5 C 686.101,92.9881 696.101,95.1548 705.5,100C 712.6,105.44 716.767,112.606 718,121.5C 718.5,145.498 718.667,169.498 718.5,193.5C 710.5,193.5 702.5,193.5 694.5,193.5C 694.617,191.516 693.95,189.85 692.5,188.5C 680.368,196.964 667.368,198.464 653.5,193C 637.943,184.007 632.776,170.84 638,153.5C 643.771,143.013 652.604,136.513 664.5,134C 673.722,131.92 683.055,130.753 692.5,130.5C 692.194,120.194 686.861,114.861 676.5,114.5C 667.295,115.399 659.128,118.732 652,124.5C 649.333,119.167 646.667,113.833 644,108.5C 643.289,106.633 643.789,105.133 645.5,104C 654.867,98.3793 664.867,94.8793 675.5,93.5 Z M 688.5,148.5 C 689.833,148.5 691.167,148.5 692.5,148.5C 692.666,154.842 692.5,161.175 692,167.5C 685.123,173.511 677.29,175.344 668.5,173C 661.926,169.192 660.426,164.025 664,157.5C 665.938,154.894 668.438,153.061 671.5,152C 677.254,150.602 682.921,149.435 688.5,148.5 Z"/></g>
<g><path style="opacity:0.962" fill="#ec1f23" d="M 838.5,93.5 C 872.197,94.0274 890.197,111.194 892.5,145C 888.732,184.447 867.398,200.781 828.5,194C 810.811,187.156 800.311,174.323 797,155.5C 793.126,133.116 799.959,114.95 817.5,101C 824.171,97.1683 831.171,94.6683 838.5,93.5 Z M 840.5,115.5 C 852.13,115.233 859.963,120.567 864,131.5C 867.078,141.939 866.411,152.272 862,162.5C 854.519,174.064 844.686,176.564 832.5,170C 823.364,160.633 820.197,149.467 823,136.5C 824.653,125.782 830.486,118.782 840.5,115.5 Z"/></g>
<g><path style="opacity:0.983" fill="#ec1f23" d="M 956.5,93.5 C 978.895,92.2623 992.062,102.596 996,124.5C 996.5,147.498 996.667,170.498 996.5,193.5C 987.833,193.5 979.167,193.5 970.5,193.5C 970.932,171.794 970.432,150.127 969,128.5C 964.795,117.315 956.962,113.481 945.5,117C 941.487,119.006 937.82,121.506 934.5,124.5C 933.5,147.49 933.167,170.49 933.5,193.5C 924.833,193.5 916.167,193.5 907.5,193.5C 907.5,161.167 907.5,128.833 907.5,96.5C 915.5,96.5 923.5,96.5 931.5,96.5C 931.247,98.8273 931.914,100.827 933.5,102.5C 940.58,97.7012 948.247,94.7012 956.5,93.5 Z"/></g>
<g><path style="opacity:0.963" fill="#ec1f23" d="M 1052.5,93.5 C 1079.86,92.7063 1096.03,105.706 1101,132.5C 1101.5,138.825 1101.67,145.158 1101.5,151.5C 1080.17,151.5 1058.83,151.5 1037.5,151.5C 1038.07,161.222 1042.74,168.055 1051.5,172C 1065.49,175.563 1078.49,173.396 1090.5,165.5C 1093.23,172.012 1095.56,178.679 1097.5,185.5C 1095.43,188.048 1092.76,189.881 1089.5,191C 1072.25,197.662 1054.92,197.995 1037.5,192C 1019.13,182.097 1010.46,166.597 1011.5,145.5C 1010.9,116.613 1024.57,99.2795 1052.5,93.5 Z M 1054.5,114.5 C 1066.55,114.554 1073.22,120.554 1074.5,132.5C 1062.5,132.5 1050.5,132.5 1038.5,132.5C 1039.98,123.021 1045.31,117.021 1054.5,114.5 Z"/></g>
<g><path style="opacity:0.964" fill="#ec1f23" d="M 317.5,96.5 C 327.083,96.1816 336.583,96.5149 346,97.5C 353.951,118.028 362.285,138.362 371,158.5C 379.138,137.915 386.972,117.248 394.5,96.5C 403.839,96.3335 413.173,96.5002 422.5,97C 409.038,128.761 395.704,160.594 382.5,192.5C 374.275,193.815 366.108,193.815 358,192.5C 344.206,160.583 330.706,128.583 317.5,96.5 Z"/></g>
</svg>
