<?xml version="1.0" encoding="UTF-8"?>
<!DOCTYPE svg PUBLIC "-//W3C//DTD SVG 1.1//EN" "http://www.w3.org/Graphics/SVG/1.1/DTD/svg11.dtd">
<svg xmlns="http://www.w3.org/2000/svg" version="1.1" width="274px" height="273px" style="shape-rendering:geometricPrecision; text-rendering:geometricPrecision; image-rendering:optimizeQuality; fill-rule:evenodd; clip-rule:evenodd" xmlns:xlink="http://www.w3.org/1999/xlink">
<g><path style="opacity:0.998" fill="#ed2024" d="M 191.5,17.5 C 148.185,17.0803 112.351,33.0803 84,65.5C 63.7705,91.3157 56.7705,120.316 63,152.5C 71.9133,185.413 93.08,205.247 126.5,212C 163.198,215.409 189.364,200.576 205,167.5C 218.224,118.121 200.057,86.9545 150.5,74C 149.435,66.7107 150.268,59.544 153,52.5C 161.527,35.1321 175.027,23.7988 193.5,18.5C 225.937,33.4388 249.104,57.4388 263,90.5C 283.293,153.864 267.46,206.031 215.5,247C 173.262,274.195 128.595,278.862 81.5,261C 34.4182,239.635 7.0849,203.468 -0.5,152.5C -0.5,143.167 -0.5,133.833 -0.5,124.5C 8.69098,69.1284 39.691,31.6284 92.5,12C 120.068,3.77735 147.735,3.44402 175.5,11C 181.214,12.5088 186.548,14.6755 191.5,17.5 Z"/></g>
<g><path style="opacity:1" fill="#fffefd" d="M 191.5,17.5 C 192.492,17.3284 193.158,17.6618 193.5,18.5C 175.027,23.7988 161.527,35.1321 153,52.5C 150.268,59.544 149.435,66.7107 150.5,74C 200.057,86.9545 218.224,118.121 205,167.5C 189.364,200.576 163.198,215.409 126.5,212C 93.08,205.247 71.9133,185.413 63,152.5C 56.7705,120.316 63.7705,91.3157 84,65.5C 112.351,33.0803 148.185,17.0803 191.5,17.5 Z"/></g>
</svg>
